<svg id="Capa_1" data-name="Capa 1" xmlns="http://www.w3.org/2000/svg" xmlns:xlink="http://www.w3.org/1999/xlink" viewBox="0 0 210.14 66.67"><defs><style>.cls-1{fill:#bb843a;}.cls-2{clip-path:url(#clip-path);}.cls-3{fill:#fff;}.cls-4{fill:#010101;}.cls-5{fill:#066b87;}</style><clipPath id="clip-path"><circle class="cls-1" cx="32.31" cy="35.65" r="20.4"/></clipPath></defs><path class="cls-1" d="M24.72,35.41a1.43,1.43,0,0,1,.17-2.11q8.77-8.77,17.55-17.55a6.12,6.12,0,0,1,6.26-1.59,5.83,5.83,0,0,1,4.35,4.53,6,6,0,0,1-1.73,6q-5.05,5.09-10.14,10.14l-7.33,7.34c-.75.75-1.31.8-2.3.12a1.4,1.4,0,0,1-.23.35c-2.07,2.09-4.14,4.16-6.22,6.24a1.36,1.36,0,0,1-1.17.48,1.17,1.17,0,0,1-1-.81q-1.37-3.81-2.71-7.63a1.25,1.25,0,0,1,.38-1.39l3.84-3.84A4.15,4.15,0,0,1,24.72,35.41Zm9.4-5.92a4,4,0,0,1,.27-.37L40,23.51c.11-.12.23-.23.35-.34a2.55,2.55,0,0,1,4.09,1.25A2.52,2.52,0,0,1,43.69,27L38,32.73l-.25.26s0,0,0,.06l.59.6a.6.6,0,0,1,0,1c-.69.7-1.39,1.4-2.09,2.09a.62.62,0,0,1-1,0l-.55-.57L31,39.82c.47.48,1,1,1.45,1.5.23.25.37.23.6,0,2.88-2.9,5.77-5.78,8.66-8.67s5.9-5.88,8.83-8.84a4.91,4.91,0,0,0,1.16-5.58,5.15,5.15,0,0,0-8.43-1.61L28.72,31.14c-1,1-2,2-3,3-.08.09-.16.34-.11.39.54.57,1.1,1.12,1.62,1.63L31,32.42c-.19-.18-.42-.38-.63-.6a.57.57,0,0,1,0-.91c.7-.72,1.42-1.44,2.14-2.15a.62.62,0,0,1,1,0C33.65,29,33.84,29.2,34.12,29.49Zm-3.37,12-5.29-5.29a2,2,0,0,1-.21.27C24,37.73,22.82,39,21.58,40.16a.52.52,0,0,0-.14.64q1.23,3.48,2.44,7l.14.34Zm6.11-9.38,1.87-1.87,4.14-4.14a1.38,1.38,0,0,0,.46-1.22,1.26,1.26,0,0,0-.88-1.07,1.32,1.32,0,0,0-1.44.34l-5.95,6-.09.11Zm-8.65,4.92L30,38.89l3.66-3.66-1.81-1.8Zm3.43-5.7,4.06,4.06L37,34.11,33,30.05Z"/><path class="cls-1" d="M44.05,20.16A2.83,2.83,0,1,1,46.88,23,2.82,2.82,0,0,1,44.05,20.16Zm2.82-1.64a1.62,1.62,0,0,0-1.63,1.63,1.63,1.63,0,0,0,1.63,1.65,1.64,1.64,0,0,0,0-3.28Z"/><circle class="cls-1" cx="32.31" cy="35.65" r="20.4"/><g class="cls-2"><path class="cls-3" d="M24.72,35.41a1.43,1.43,0,0,1,.17-2.11q8.77-8.77,17.55-17.55a6.12,6.12,0,0,1,6.26-1.59,5.83,5.83,0,0,1,4.35,4.53,6,6,0,0,1-1.73,6q-5.05,5.09-10.14,10.14l-7.33,7.34c-.75.75-1.31.8-2.3.12a1.4,1.4,0,0,1-.23.35c-2.07,2.09-4.14,4.16-6.22,6.24a1.36,1.36,0,0,1-1.17.48,1.17,1.17,0,0,1-1-.81q-1.37-3.81-2.71-7.63a1.25,1.25,0,0,1,.38-1.39l3.84-3.84A4.15,4.15,0,0,1,24.72,35.41Zm9.4-5.92a4,4,0,0,1,.27-.37L40,23.51c.11-.12.23-.23.35-.34a2.55,2.55,0,0,1,4.09,1.25A2.52,2.52,0,0,1,43.69,27L38,32.73l-.25.26s0,0,0,.06l.59.6a.6.6,0,0,1,0,1c-.69.7-1.39,1.4-2.09,2.09a.62.62,0,0,1-1,0l-.55-.57L31,39.82c.47.48,1,1,1.45,1.5.23.25.37.23.6,0,2.88-2.9,5.77-5.78,8.66-8.67s5.9-5.88,8.83-8.84a4.91,4.91,0,0,0,1.16-5.58,5.15,5.15,0,0,0-8.43-1.61L28.72,31.14c-1,1-2,2-3,3-.08.09-.16.34-.11.39.54.57,1.1,1.12,1.62,1.63L31,32.42c-.19-.18-.42-.38-.63-.6a.57.57,0,0,1,0-.91c.7-.72,1.42-1.44,2.14-2.15a.62.62,0,0,1,1,0C33.65,29,33.84,29.2,34.12,29.49Zm-3.37,12-5.29-5.29a2,2,0,0,1-.21.27C24,37.73,22.82,39,21.58,40.16a.52.52,0,0,0-.14.64q1.23,3.48,2.44,7l.14.34Zm6.11-9.38,1.87-1.87,4.14-4.14a1.38,1.38,0,0,0,.46-1.22,1.26,1.26,0,0,0-.88-1.07,1.32,1.32,0,0,0-1.44.34l-5.95,6-.09.11Zm-8.65,4.92L30,38.89l3.66-3.66-1.81-1.8Zm3.43-5.7,4.06,4.06L37,34.11,33,30.05Z"/><path class="cls-3" d="M44.05,20.16A2.83,2.83,0,1,1,46.88,23,2.82,2.82,0,0,1,44.05,20.16Zm2.82-1.64a1.62,1.62,0,0,0-1.63,1.63,1.63,1.63,0,0,0,1.63,1.65,1.64,1.64,0,0,0,0-3.28Z"/></g><path class="cls-4" d="M62.54,26.31H60.31v-12h2.23Zm6.38-5.14H62.35v-1.9h6.57Zm-.17-6.85H71v12H68.75Z"/><path class="cls-4" d="M72.5,26.31l5.4-12h2.19l5.42,12H83.18L78.53,15.5h.9L74.8,26.31ZM75,23.54l.6-1.75h6.47l.6,1.75Z"/><path class="cls-4" d="M87,26.31v-12h1.83l7.52,9.24h-.9V14.32H97.7v12H95.86l-7.52-9.23h.91v9.23Z"/><path class="cls-4" d="M100.92,26.31v-12h5.24a7.44,7.44,0,0,1,3.43.75,5.62,5.62,0,0,1,2.3,2.09,5.88,5.88,0,0,1,.82,3.16,5.88,5.88,0,0,1-.82,3.14,5.57,5.57,0,0,1-2.3,2.1,7.44,7.44,0,0,1-3.43.75Zm2.23-1.88h2.91a5,5,0,0,0,2.34-.51,3.8,3.8,0,0,0,1.53-1.44,4.22,4.22,0,0,0,.54-2.16,4.18,4.18,0,0,0-.54-2.17,3.71,3.71,0,0,0-1.53-1.43,4.93,4.93,0,0,0-2.34-.52h-2.91Z"/><path class="cls-4" d="M120.63,26.49a7,7,0,0,1-2.54-.46,5.94,5.94,0,0,1-2-1.28,5.87,5.87,0,0,1-1.35-2,6.57,6.57,0,0,1,0-4.93,5.75,5.75,0,0,1,1.36-2,6.2,6.2,0,0,1,2-1.28,7.06,7.06,0,0,1,2.56-.46,6.9,6.9,0,0,1,2.69.51,5.41,5.41,0,0,1,2.06,1.5L124,17.5a4.24,4.24,0,0,0-3.21-1.4,4.54,4.54,0,0,0-1.72.31,3.91,3.91,0,0,0-2.25,2.21,4.79,4.79,0,0,0,0,3.39A3.91,3.91,0,0,0,119,24.22a4.54,4.54,0,0,0,1.72.31A4.16,4.16,0,0,0,124,23.11l1.44,1.37A5.49,5.49,0,0,1,123.34,26,6.93,6.93,0,0,1,120.63,26.49Z"/><path class="cls-4" d="M127.54,26.31v-12h4.94a6.65,6.65,0,0,1,2.73.51A3.94,3.94,0,0,1,137,16.3a4.13,4.13,0,0,1,.61,2.28,4.13,4.13,0,0,1-.61,2.28,3.9,3.9,0,0,1-1.76,1.45,6.65,6.65,0,0,1-2.73.51h-3.71l1-1v4.5Zm2.23-4.26-1-1.07h3.6a3.34,3.34,0,0,0,2.22-.63,2.18,2.18,0,0,0,.75-1.77,2.15,2.15,0,0,0-.75-1.76,3.4,3.4,0,0,0-2.22-.62h-3.6l1-1.1Zm5.62,4.26-3-4.35h2.38l3,4.35Z"/><path class="cls-4" d="M138.37,26.31l5.4-12H146l5.41,12h-2.33L144.41,15.5h.89l-4.63,10.81Zm2.49-2.77.6-1.75h6.48l.6,1.75Z"/><path class="cls-4" d="M155.14,26.31h-2.23v-12h8.76v1.86h-6.53ZM155,19.84h6v1.88h-6Z"/><path class="cls-4" d="M166.35,26.31V16.2h-4V14.32h10.18V16.2h-4V26.31Z"/><path class="cls-4" d="M176.46,24.45h6.77v1.86h-9v-12H183v1.86h-6.53Zm-.17-5.15h6v1.84h-6Z"/><path class="cls-4" d="M185.72,26.31v-12H191a7.47,7.47,0,0,1,3.43.75,5.68,5.68,0,0,1,2.3,2.09,6,6,0,0,1,.82,3.16,6,6,0,0,1-.82,3.14,5.63,5.63,0,0,1-2.3,2.1,7.47,7.47,0,0,1-3.43.75Zm2.22-1.88h2.92a5,5,0,0,0,2.34-.51,3.84,3.84,0,0,0,1.52-1.44,4.22,4.22,0,0,0,.54-2.16,4.18,4.18,0,0,0-.54-2.17,3.75,3.75,0,0,0-1.52-1.43,4.93,4.93,0,0,0-2.34-.52h-2.92Z"/><path class="cls-5" d="M67.44,56.05H60.06V30h7.38ZM78,45.88H66.92V39.76H78ZM77.5,30h7.38V56.05H77.5Z"/><path class="cls-5" d="M87,56.05,98.48,30h7.26l11.55,26.08h-7.67l-9-22.47h2.91l-9,22.47ZM93.26,51l1.9-5.44H107.9L109.8,51Z"/><path class="cls-5" d="M125.94,56.05,114.8,30h8l9.39,22.58h-4.69L137.08,30h7.3L133.2,56.05Z"/><path class="cls-5" d="M153.21,50.35h13.64v5.7H145.91V30h20.46v5.7H153.21Zm-.52-10.29H164.8v5.52H152.69Z"/><path class="cls-5" d="M171,56.05V30H177L191.4,47.33h-2.86V30h7.22V56.05h-6.07L175.31,38.68h2.87V56.05Z"/></svg>