<?xml version="1.0" encoding="utf-8"?>
<!-- Generator: Adobe Illustrator 25.0.0, SVG Export Plug-In . SVG Version: 6.00 Build 0)  -->
<svg version="1.0" id="Capa_1" xmlns="http://www.w3.org/2000/svg" xmlns:xlink="http://www.w3.org/1999/xlink" x="0px" y="0px"
	 viewBox="0 0 150 145.07" style="enable-background:new 0 0 150 145.07;" xml:space="preserve">
<style type="text/css">
	.st0{fill:#D3D3D3;}
</style>
<g>
	<path class="st0" d="M69.69,10.35c3.81,0,7.62,0,11.42,0c1.93,0.17,3.86,0.33,5.78,0.5c6.8,0.57,13.58,1.33,20.2,3.03
		c13.93,3.57,23.42,12.03,27.58,25.94c2.2,7.35,2.85,14.99,3.55,22.61c0.18,2.01,0.33,4.02,0.5,6.03c0,3.64,0,7.28,0,10.93
		c-0.07,0.36-0.18,0.72-0.19,1.08c-0.31,7.45-1.21,14.83-2.55,22.16c-2.96,16.19-12.19,26.79-28.16,31.2
		c-6.19,1.71-12.58,2.36-18.96,2.99c-14.65,1.44-29.19,0.64-43.57-2.36c-16.1-3.35-26.41-13.05-30.27-29.15
		c-2.19-9.15-3.13-18.51-3.39-27.91c-0.32-11.54,0.84-22.99,3.24-34.26c2.95-13.89,11.06-23.52,24.64-28.18
		c7.05-2.42,14.45-3.07,21.8-3.87C64.09,10.78,66.89,10.59,69.69,10.35z M117.72,123.08c0.21-0.15,0.59-0.4,0.94-0.68
		c5.62-4.4,9.19-10.16,10.86-17.04c2.2-9.03,3.1-18.26,3.43-27.53c0.39-10.92-0.68-21.74-2.75-32.45
		c-2.72-14.05-11.12-22.84-25.07-26.13c-8.64-2.04-17.45-2.92-26.31-3.17c-11.04-0.31-22,0.71-32.8,2.99
		c-13.26,2.8-21.98,10.72-25.27,24c-2.22,8.93-3.1,18.09-3.41,27.28c-0.37,11,0.78,21.9,2.97,32.67
		c1.53,7.55,4.97,14.07,11.04,19.03c0.46,0.37,0.94,0.72,1.59,1.2c0-0.86-0.01-1.43,0-2c0.17-14.3,6.69-24.5,19.72-30.44
		c7.01-3.19,14.46-4.3,22.1-4.33c8.28-0.03,16.33,1.15,23.87,4.77c8.99,4.32,15.21,11.07,17.59,20.88
		C117.07,115.7,117.24,119.41,117.72,123.08z M77.69,131.85c3.21-0.24,8.99-0.53,14.75-1.14c5.59-0.59,11.15-1.4,16.54-3.13
		c1.66-0.53,2.5-1.21,2.63-3.16c0.93-13.22-4.5-24.07-17.65-29.02c-11.77-4.43-23.83-4.37-35.8-0.68
		c-7.38,2.28-13.28,6.64-16.78,13.76c-2.74,5.57-3.17,11.5-2.45,17.56c0.04,0.33,0.48,0.75,0.83,0.87c1.67,0.6,3.34,1.23,5.07,1.62
		C54.8,130.77,64.91,131.69,77.69,131.85z"/>
	<path class="st0" d="M75.17,82.43c-14.12,0.01-25.58-11.4-25.62-25.52c-0.03-14.17,11.43-25.69,25.58-25.7
		c14.15-0.01,25.64,11.5,25.62,25.66C100.72,71,89.3,82.42,75.17,82.43z M75.17,76.75c11-0.02,19.88-8.9,19.88-19.9
		c0.01-11.05-8.92-19.95-19.98-19.93c-10.96,0.02-19.84,8.96-19.82,19.97C55.26,67.87,64.18,76.77,75.17,76.75z"/>
</g>
</svg>
