<?xml version="1.0" encoding="utf-8"?>
<!-- Generator: Adobe Illustrator 25.0.0, SVG Export Plug-In . SVG Version: 6.00 Build 0)  -->
<svg version="1.0" id="Capa_1" xmlns="http://www.w3.org/2000/svg" xmlns:xlink="http://www.w3.org/1999/xlink" x="0px" y="0px"
	 viewBox="0 0 150 106.56" style="enable-background:new 0 0 150 106.56;" xml:space="preserve">
<style type="text/css">
	.st0{fill:#FFFFFF;}
	.st1{fill:#A0A0A0;}
</style>
<g>
	<rect class="st0" width="150" height="106.56"/>
</g>
<g>
	<path class="st1" d="M80.11,66.64c-2.58-0.38-4.03-1.85-4.41-4.42c-1.46-0.2-2.7-0.78-3.56-2.03c-1.29-1.88-1.06-4.22,0.64-5.96
		c2.04-2.08,4.11-4.13,6.11-6.13c-2.96-2.99-5.9-5.96-8.82-8.91c-0.91,0.93-1.81,1.84-2.69,2.74c2.39,0.92,3.91,3.04,5.6,4.89
		c1.52,1.66,1.26,4.14-0.37,5.84c-1.1,1.15-2.24,2.27-3.35,3.41c-0.02,0.02-0.02,0.06-0.06,0.15c0.73,1.04,0.85,2.26,0.83,3.54
		c-0.04,2.18,0.01,4.36-0.02,6.54c-0.01,0.69,0.18,1.19,0.68,1.68c9.2,9.16,18.37,18.35,27.56,27.52c0.26,0.26,0.59,0.43,0.93,0.67
		c-0.86,0.83-1.51,1.47-2.24,2.17c-0.22-0.21-0.46-0.43-0.69-0.66c-9.4-9.39-18.79-18.79-28.2-28.17c-0.68-0.68-1.01-1.37-0.99-2.35
		c0.05-2.67,0.05-5.34-0.01-8.01c-0.01-0.53-0.25-1.18-0.61-1.54c-4.07-4.13-8.18-8.22-12.29-12.32c-0.08-0.08-0.18-0.15-0.27-0.23
		c-1.48,1.02-1.6,2.98-0.23,4.37c2.09,2.12,4.2,4.22,6.31,6.32c0.24,0.24,0.51,0.43,0.79,0.66c-0.81,0.73-1.5,1.35-2.25,2.03
		c-0.07-0.07-0.3-0.27-0.51-0.48c-1.91-1.91-3.82-3.82-5.73-5.72c-0.71-0.71-1.92-0.82-2.63-0.12c-2.32,2.27-4.61,4.59-6.9,6.9
		c-0.13,0.13-0.22,0.29-0.31,0.45c-0.88,1.58-0.44,4.82,0.84,6.09c2.23,2.24,4.48,4.46,6.7,6.71c1.03,1.05,2.25,1.71,3.7,1.5
		c2.73-0.39,4.59,0.72,6.47,2.67c6.24,6.48,12.67,12.76,19.03,19.12c0.24,0.24,0.46,0.48,0.72,0.76c-0.72,0.65-1.4,1.26-2.16,1.95
		c-0.15-0.14-0.41-0.38-0.66-0.63c-6.73-6.73-13.46-13.45-20.17-20.19c-0.52-0.53-1.04-0.75-1.77-0.71
		c-0.92,0.05-1.85,0.04-2.76-0.06c-1.7-0.19-3.14-0.99-4.39-2.2c-0.93,0.74-1.59,1.43-1.55,2.79c0.09,3.86,0.48,3.19-3.05,4.72
		c-2.58,1.12-5.19,2.21-7.77,3.34c-0.88,0.39-1.58,0.27-2.24-0.43c-0.78-0.83-1.58-1.63-2.41-2.41c-0.7-0.65-0.85-1.34-0.46-2.23
		c1.41-3.23,2.8-6.47,4.17-9.71c0.34-0.81,0.88-1.21,1.77-1.18c0.7,0.03,1.43-0.09,2.11,0.03c1.35,0.23,2.07-0.57,2.74-1.4
		c-0.58-0.86-1.25-1.61-1.65-2.48c-1.37-2.91-0.59-7.01,1.68-9.28c1.76-1.76,3.48-3.55,5.29-5.26c0.96-0.9,2.06-1.64,3.26-2.58
		c-0.62-2.6,0.78-4.69,2.85-6.5c0.8-0.71,1.53-0.69,2.34,0.12c1.52,1.51,3.03,3.05,4.48,4.52c0.69-0.71,1.34-1.38,1.98-2.04
		c-2.04-0.65-3.28-2.59-4.88-4.11c-2.02-1.93-3.97-3.93-5.93-5.91c-2.09-2.1-2.11-4.66-0.03-6.75c5.83-5.84,11.67-11.68,17.51-17.51
		c2-2,4.6-1.99,6.62,0c2.92,2.9,5.83,5.8,8.72,8.72c1.99,2.01,1.98,4.6-0.01,6.62c-1.81,1.83-3.64,3.64-5.39,5.39
		c2.26,2.26,4.47,4.46,6.75,6.74c0.08-0.06,0.29-0.22,0.49-0.39c2.32-1.95,5.63-1.95,7.8,0.16c3.7,3.59,7.31,7.27,10.95,10.92
		c0.86,0.86,1.25,1.94,1.25,3.17c0,2.76,0.02,5.52-0.02,8.29c-0.01,0.87,0.26,1.51,0.87,2.11c4.25,4.21,8.47,8.45,12.71,12.68
		c0.22,0.22,0.48,0.38,0.81,0.63c-0.85,0.71-1.56,1.32-2.35,1.98c-0.05-0.04-0.29-0.26-0.52-0.49c-4.28-4.27-8.54-8.56-12.84-12.81
		c-1.12-1.11-1.65-2.37-1.62-3.94c0.04-2.67-0.01-5.34,0.02-8.01c0.01-0.76-0.21-1.34-0.75-1.88c-3.4-3.37-6.77-6.77-10.16-10.15
		c-1.52-1.51-3.14-1.48-4.67,0c-1.94,1.88-3.91,3.72-5.88,5.58c1.4,1.34,3.5,1.25,4.9,0c0.69-0.61,1.31-1.29,1.97-1.94
		c1.07-1.05,2.01-0.96,2.77,0.29c1.41,2.33,2.8,4.67,4.24,7.07c-0.84,0.51-1.62,0.98-2.51,1.51c-1.14-1.89-2.27-3.77-3.38-5.61
		c-1.07,0.78-2.12,1.55-3.2,2.34c0.22,0.66,0.48,1.44,0.77,2.3c2.45,0.36,3.97,1.81,4.33,4.37c2.9,0.75,3.89,1.73,4.43,4.44
		c0.24,0.06,0.5,0.13,0.76,0.19c3.48,0.83,4.79,4.83,2.43,7.52c-0.97,1.11-2.06,2.1-3.1,3.15c-0.13,0.13-0.24,0.27-0.37,0.42
		c8.23,8.23,16.43,16.42,24.67,24.65c-0.78,0.7-1.48,1.32-2.41,2.16c-0.09-0.15-0.23-0.52-0.49-0.78
		c-7.81-7.82-15.63-15.63-23.43-23.45c-0.43-0.43-0.77-0.59-1.42-0.39c-2.16,0.66-4.28-0.3-5.38-2.28c-0.14-0.25-0.5-0.58-0.74-0.56
		C82.58,71.22,80.81,69.94,80.11,66.64z M65.67,17.25c-2.68,2.68-5.37,5.38-7.96,7.98c3.59,3.59,7.26,7.27,10.86,10.87
		c2.64-2.63,5.35-5.32,8.01-7.97C72.94,24.5,69.26,20.82,65.67,17.25z M67.77,14.7c3.81,3.81,7.49,7.49,11.29,11.29
		c0.78-0.83,1.62-1.71,2.45-2.6c0.74-0.79,0.73-1.54-0.03-2.34c-0.48-0.51-0.99-1-1.49-1.5c-2.4-2.4-4.8-4.81-7.22-7.21
		c-0.9-0.89-1.63-0.89-2.54-0.02C69.41,13.13,68.57,13.94,67.77,14.7z M55.15,27.35c-0.84,0.87-1.73,1.75-2.58,2.67
		c-0.63,0.67-0.63,1.48,0.02,2.13c3,3.02,6.01,6.03,9.04,9.03c0.6,0.6,1.36,0.65,1.99,0.08c0.97-0.88,1.85-1.85,2.71-2.73
		C62.62,34.82,58.95,31.15,55.15,27.35z M37.14,72.27c-1.15,2.68-2.22,5.28-3.39,7.84c-0.4,0.87,0.22,1.13,0.61,1.59
		c0.39,0.47,0.75,0.67,1.4,0.37c2.17-0.99,4.36-1.95,6.58-2.82c0.9-0.35,1.34-0.79,1.18-1.78c-0.32-1.94,0.22-3.55,1.89-4.71
		c0.14-0.1,0.24-0.26,0.33-0.37c-0.78-0.78-1.53-1.52-2.4-2.38C42.01,72.67,39.56,72.47,37.14,72.27z M75.98,33.48
		c-1.14,1.14-2.38,2.38-3.56,3.56c2.12,2.13,4.36,4.38,6.52,6.55c1.2-1.16,2.46-2.37,3.68-3.55C80.36,37.81,78.13,35.6,75.98,33.48z
		 M67.17,53.95c1.13-1.13,2.27-2.25,3.37-3.39c0.61-0.64,0.64-1.44,0.05-2.06c-1.06-1.11-2.15-2.19-3.25-3.25
		c-0.56-0.53-1.3-0.62-1.84-0.11c-1.25,1.16-2.4,2.42-3.55,3.6C63.68,50.45,65.39,52.16,67.17,53.95z M83.69,51.57
		c-0.42-0.48-0.73-1.02-1.2-1.33c-0.63-0.42-1.31-0.21-1.84,0.31c-1.96,1.94-3.91,3.88-5.84,5.84c-0.73,0.74-0.71,1.71-0.03,2.37
		c0.68,0.66,1.62,0.65,2.38-0.09c1.92-1.89,3.83-3.79,5.71-5.72C83.19,52.63,83.35,52.15,83.69,51.57z M80.22,63.86
		c0.57-0.31,1.01-0.44,1.29-0.72c1.97-1.93,3.92-3.87,5.85-5.84c0.73-0.74,0.7-1.72,0.01-2.37c-0.66-0.63-1.57-0.63-2.31,0.04
		c-0.61,0.56-1.18,1.16-1.76,1.75c-1.36,1.36-2.73,2.72-4.09,4.1c-0.52,0.53-0.76,1.2-0.34,1.83
		C79.19,63.13,79.75,63.46,80.22,63.86z M84.61,68.27c0.56-0.27,0.98-0.37,1.24-0.63c2.03-1.99,4.05-4,6.04-6.04
		c0.64-0.66,0.55-1.62-0.08-2.23c-0.63-0.62-1.53-0.65-2.24-0.05c-0.42,0.36-0.79,0.77-1.18,1.16c-1.58,1.58-3.16,3.16-4.74,4.74
		c-0.52,0.52-0.78,1.19-0.36,1.83C83.6,67.53,84.16,67.86,84.61,68.27z M96.96,64.83c-0.45-0.5-0.79-1.05-1.28-1.36
		c-0.65-0.41-1.31-0.13-1.83,0.39c-1.42,1.4-2.83,2.81-4.23,4.23c-0.78,0.8-0.81,1.76-0.12,2.45c0.69,0.69,1.65,0.66,2.45-0.13
		c1.4-1.37,2.8-2.76,4.16-4.17C96.43,65.9,96.6,65.43,96.96,64.83z"/>
	<path class="st1" d="M62.62,94.41c0,1.04,0,1.95,0,2.95c-0.31,0-0.58,0-0.84,0c-8.74,0-17.49,0.01-26.23-0.01
		c-4-0.01-6.51-4.02-4.72-7.49c0.89-1.71,2.34-2.67,4.26-2.79c1.28-0.08,2.57-0.02,3.93-0.02c0,0.95,0,1.88,0,2.94
		c-1.07,0-2.17-0.01-3.26,0c-1.53,0.01-2.53,0.86-2.55,2.17c-0.02,1.34,1,2.24,2.58,2.24c8.56,0,17.12,0,25.68,0
		C61.83,94.41,62.19,94.41,62.62,94.41z"/>
	<path class="st1" d="M90.05,23.07c-0.52-0.53-1.15-1.19-1.72-1.78c2.9-2.9,5.81-5.81,8.75-8.75c0.55,0.58,1.17,1.25,1.7,1.81
		C95.92,17.19,93.02,20.1,90.05,23.07z"/>
	<path class="st1" d="M91.58,31.98c-0.58-0.59-1.22-1.24-1.78-1.81c2.91-2.91,5.82-5.82,8.76-8.76c0.54,0.55,1.19,1.22,1.77,1.82
		C97.43,26.13,94.52,29.04,91.58,31.98z"/>
	<path class="st1" d="M106.9,45.75c0-0.94,0-1.85,0-2.76c2.83-0.48,7.36,2.44,7.28,7.18c-0.93,0-1.87,0-2.84,0
		C111.02,47.56,109.55,46.06,106.9,45.75z"/>
	<path class="st1" d="M41.83,27.36c1.47,2.44,2.92,4.84,4.43,7.35c-0.82,0.5-1.61,0.98-2.52,1.52c-1.47-2.44-2.92-4.85-4.42-7.35
		C40.16,28.37,40.96,27.89,41.83,27.36z"/>
	<path class="st1" d="M35.46,49.99c-0.52-0.86-0.99-1.64-1.52-2.52c2.44-1.47,4.86-2.92,7.35-4.42c0.52,0.85,1,1.65,1.53,2.51
		C40.37,47.04,37.97,48.48,35.46,49.99z"/>
	<path class="st1" d="M87.15,15.76c-0.57-0.57-1.21-1.22-1.79-1.8c1.93-1.93,3.86-3.85,5.79-5.78c0.52,0.57,1.15,1.26,1.72,1.88
		C91.06,11.85,89.14,13.76,87.15,15.76z"/>
	<path class="st1" d="M31.46,38.4c0.21-1.02,0.39-1.91,0.58-2.88c2.47,0.49,4.86,0.97,7.34,1.46c-0.2,0.99-0.38,1.9-0.57,2.89
		C36.34,39.38,33.95,38.9,31.46,38.4z"/>
	<path class="st1" d="M118.6,44.3c-0.99,0-1.9,0-2.85,0c-0.26-1.7-1.19-2.73-2.96-2.95c0-0.94,0-1.88,0-2.81
		C115.5,38.24,118.69,40.89,118.6,44.3z"/>
	<path class="st1" d="M54.85,83.99c-1.54-0.51-2.92-0.98-4.39-1.47c0.3-0.91,0.58-1.77,0.91-2.78c1.47,0.48,2.9,0.95,4.42,1.46
		C55.46,82.16,55.16,83.05,54.85,83.99z"/>
	<path class="st1" d="M54.3,90.87c-0.96-0.97-1.89-1.92-2.86-2.9c0.61-0.56,1.27-1.18,1.86-1.73c0.91,0.91,1.87,1.87,2.85,2.85
		C55.59,89.62,54.94,90.26,54.3,90.87z"/>
	<path class="st1" d="M45.96,87.6c0.97,0.98,1.9,1.92,2.84,2.87c-0.6,0.61-1.25,1.28-1.88,1.91c-0.96-0.98-1.89-1.93-2.82-2.88
		C44.7,88.89,45.35,88.23,45.96,87.6z"/>
</g>
</svg>
